<svg width="512" height="512" viewBox="0 0 512 512" fill="none" xmlns="http://www.w3.org/2000/svg">
  <rect width="512" height="512" rx="115" fill="#39c5bb"/>
  <path fill-rule="evenodd" clip-rule="evenodd" d="M256 128C166.4 128 89.6 182.4 64 256C89.6 329.6 166.4 384 256 384C345.6 384 422.4 329.6 448 256C422.4 182.4 345.6 128 256 128ZM256 332.8C213.568 332.8 179.2 298.432 179.2 256C179.2 213.568 213.568 179.2 256 179.2C298.432 179.2 332.8 213.568 332.8 256C332.8 298.432 298.432 332.8 256 332.8ZM256 230.4C241.856 230.4 230.4 241.856 230.4 256C230.4 270.144 241.856 281.6 256 281.6C270.144 281.6 281.6 270.144 281.6 256C281.6 241.856 270.144 230.4 256 230.4Z" fill="white"/>
</svg>
